<?xml version="1.0" encoding="UTF-8"?> <svg xmlns="http://www.w3.org/2000/svg" viewBox="0 0 39.66 31.98"><defs><style>.cls-1{fill:#64a3c4;}</style></defs><title>Asset 1-1</title><g id="Layer_2" data-name="Layer 2"><g id="Layer_1-2" data-name="Layer 1"><path class="cls-1" d="M16.33.94a3.34,3.34,0,0,1,1,2.35,3.14,3.14,0,0,1-1.38,2.65L18,9h3.85l1.69-3a3.48,3.48,0,0,1-1-1.14,2.52,2.52,0,0,1-.36-1.39A3.29,3.29,0,0,1,25.55.16a3.34,3.34,0,0,1,3.31,3.31,3.34,3.34,0,0,1-3.31,3.32h-.3L23.44,9.86l2.35,2.35L29,8.41l4.16-.06a3.43,3.43,0,0,1,3.2-2.41,3.32,3.32,0,0,1,2.35,1,3.17,3.17,0,0,1,.9,2.41,3.12,3.12,0,0,1-1,2.35,3.26,3.26,0,0,1-4.34.3,3,3,0,0,1-1.21-1.75l-3.31.06L26.63,14v4.27l3.26,3.8h3.25a3.8,3.8,0,0,1,1.21-1.69,3.24,3.24,0,0,1,4.34.31,3.39,3.39,0,0,1,0,4.7,3.26,3.26,0,0,1-4.34.3A3.83,3.83,0,0,1,33.14,24H29.47L29,24l-3.43-4L23.44,22l1.81,3.14.3-.06a3.15,3.15,0,0,1,2.35,1,3.59,3.59,0,0,1,1,2.41A3.31,3.31,0,1,1,22.6,27a3,3,0,0,1,1-1.14l-1.81-3.07H18L15.91,26a3.61,3.61,0,0,1,1,1.15,3.5,3.5,0,0,1,.36,1.56A3.3,3.3,0,0,1,14,32a3.34,3.34,0,0,1-3.31-3.32A3.29,3.29,0,0,1,14,25.35h.18L16.39,22,14.1,19.68l-3.49,4-.43.06H6.51A3.75,3.75,0,0,1,5.3,25.47a3.33,3.33,0,0,1-2,.72,3.35,3.35,0,0,1-2.35-1,3.39,3.39,0,0,1,0-4.7,3.32,3.32,0,0,1,2.35-1,3,3,0,0,1,2,.73A3.72,3.72,0,0,1,6.51,22H9.82l3.38-3.91V14.14L9.82,10.22l-3.31-.06A3,3,0,0,1,5.3,11.91a3.33,3.33,0,0,1-2,.72A3.3,3.3,0,0,1,0,9.32,3.35,3.35,0,0,1,3.31,6a3.37,3.37,0,0,1,3.2,2.42l4.16.06L14,12.39,16.39,10,14.16,6.61,14,6.67A3.33,3.33,0,0,1,11.63,1a3.34,3.34,0,0,1,4.7-.06ZM2.17,8.17a1.47,1.47,0,0,0-.42,1.09,1.45,1.45,0,0,0,.42,1.08,1.42,1.42,0,0,0,1.08.43,1.46,1.46,0,0,0,1.09-.43,1.45,1.45,0,0,0,.42-1.08,1.48,1.48,0,0,0-.42-1.09,1.45,1.45,0,0,0-1.09-.42A1.45,1.45,0,0,0,2.17,8.17Zm0,13.62a1.46,1.46,0,0,0,0,2.11,1.5,1.5,0,0,0,1.08.48,1.51,1.51,0,1,0,.24-3H3.25A1.54,1.54,0,0,0,2.17,21.79ZM12.9,2.21a1.42,1.42,0,0,0-.43,1.08,1.51,1.51,0,1,0,3,.24V3.29A1.53,1.53,0,0,0,14,1.79a1.65,1.65,0,0,0-1.09.42h0Zm0,25.31a1.52,1.52,0,0,0,0,2.17,1.66,1.66,0,0,0,2.17,0,1.53,1.53,0,0,0,0-2.17,1.66,1.66,0,0,0-2.17,0Zm2-13.68v4.1l3,2.95H22L25,17.94v-4.1L22.06,11H17.78ZM24.47,2.39A1.42,1.42,0,0,0,24,3.47a1.51,1.51,0,0,0,3,.24V3.47A1.49,1.49,0,0,0,25.55,2a1.78,1.78,0,0,0-1.09.42Zm0,25a1.52,1.52,0,0,0,0,2.17,1.64,1.64,0,0,0,2.16,0,1.53,1.53,0,0,0-2.16-2.17ZM35.31,8.17a1.27,1.27,0,0,0-.42,1.09,1.45,1.45,0,0,0,.42,1.08,1.52,1.52,0,0,0,2.17,0,1.45,1.45,0,0,0,.42-1.08,1.48,1.48,0,0,0-.42-1.09,1.66,1.66,0,0,0-2.17,0Zm0,13.62a1.53,1.53,0,1,0,2.17,0,1.5,1.5,0,0,0-1.08-.48,1.52,1.52,0,0,0-1.09.48Z"></path></g></g></svg> 