<?xml version="1.0" encoding="UTF-8"?> <svg xmlns="http://www.w3.org/2000/svg" viewBox="0 0 49.15 32.03"><defs><style>.cls-1{fill:#638f63;}</style></defs><title>scrap cloud-1</title><g id="Layer_2" data-name="Layer 2"><g id="Layer_1-2" data-name="Layer 1"><path class="cls-1" d="M23.26,16a5,5,0,0,0-5,4.83h0V21a4.31,4.31,0,0,0,4.31,4.31h.06a4.89,4.89,0,0,0,3.5-1.48h0a4.63,4.63,0,0,0,1.47-3.4,4.68,4.68,0,0,0-1.26-3.2h0A4.34,4.34,0,0,0,23.32,16Z"></path><path class="cls-1" d="M29.24,15.78a2.77,2.77,0,0,0,1.89-.87h0c.92-.91,1.14-2.24.49-2.89a1.38,1.38,0,0,0-1-.38h-.05a2.83,2.83,0,0,0-1.89.86h0a2.86,2.86,0,0,0-.84,1.62v0a1.09,1.09,0,0,0,0,.26,1.5,1.5,0,0,0,.38,1h0a1.42,1.42,0,0,0,1,.37h0Z"></path><path class="cls-1" d="M41.94,14.44l-4.75,5.27A5.62,5.62,0,0,1,33,21.61h0a5.68,5.68,0,0,1-2.19-.45h0a.74.74,0,0,1-.47-.7.76.76,0,0,1,.75-.75.64.64,0,0,1,.28.06h0a4,4,0,0,0,1.57.32,4.08,4.08,0,0,0,3.05-1.37h0l4-4.46a10.21,10.21,0,0,0,.66-3.65h0C40.75,4.78,35.5,0,29.66,0h0A10.67,10.67,0,0,0,19.28,8.38l0,.07V8.7a6.05,6.05,0,0,0,2.09,3.91h0a.72.72,0,0,1,.24.54.74.74,0,0,1-.73.74.73.73,0,0,1-.5-.2h0a7.53,7.53,0,0,1-2.56-4.86v0a5.12,5.12,0,0,0-8.67,3.68v0h0v.38c6.71-.54,9.1,1.6,9.2,1.7a.77.77,0,0,1,.24.54.74.74,0,0,1-.74.74.72.72,0,0,1-.5-.19h0c-.07-.05-2.92-2.42-11.38-.89A8.91,8.91,0,0,0,0,23.09H0v0A8.87,8.87,0,0,0,8.84,32h16a3.93,3.93,0,0,0,.36-3.91v0a.87.87,0,0,1-.05-.28.75.75,0,0,1,1.45-.29h0A5.28,5.28,0,0,1,27,29.7,5.34,5.34,0,0,1,26.51,32v0h3.11C29.39,27.87,28,26.53,28,26.52a.74.74,0,0,1,0-1h0a.69.69,0,0,1,.55-.26.71.71,0,0,1,.48.19h0c.09.07,1.87,1.68,2.16,6.59h9.18a8.87,8.87,0,0,0,8.84-8.84h0A8.86,8.86,0,0,0,42,14.45h-.06ZM24.06,7.25l5.52-5.53a.73.73,0,0,1,.52-.22.74.74,0,0,1,.74.74.76.76,0,0,1-.21.52h0L25.06,8.32A3.74,3.74,0,0,0,23.9,11a3.82,3.82,0,0,0,.38,1.66v0a.64.64,0,0,1,.07.31.74.74,0,0,1-1.4.32h0a5,5,0,0,1-.52-2.25,5.25,5.25,0,0,1,1.63-3.8h0ZM15.57,18.54a3.41,3.41,0,0,0-1.6-.39,3.49,3.49,0,0,0-2.45,1h0L6.13,24.27a.75.75,0,0,1-.51.2.74.74,0,0,1-.74-.74.72.72,0,0,1,.23-.53h0l5.38-5.1A5,5,0,0,1,14,16.67a5.07,5.07,0,0,1,2.3.56h0a.75.75,0,0,1,.41.66.74.74,0,0,1-.74.74.73.73,0,0,1-.33-.08h0Zm11.85,6.6a6.72,6.72,0,0,1-4.78,2h-.06a6.09,6.09,0,0,1-6.09-6.08c0-.08,0-.15,0-.23v0a6.87,6.87,0,0,1,6.78-6.61h0a6.21,6.21,0,0,1,1.84.28h0a.73.73,0,0,0,.22,0A.7.7,0,0,0,26,14h0a.42.42,0,0,1,.05-.24h0a4.87,4.87,0,0,1,1.39-2.51h0A4.67,4.67,0,0,1,30.68,9.8h.07a3.22,3.22,0,0,1,2.24.91h0c1.4,1.4,1.15,3.88-.52,5.56a4.77,4.77,0,0,1-2.78,1.39h0c-.7.16-.48,1-.48,1h0a6.7,6.7,0,0,1-1.77,6.47h0Zm15.07.7h-7.9a7.63,7.63,0,0,1-5-2.19h0a.74.74,0,0,1,.51-1.27.74.74,0,0,1,.5.19h0a6,6,0,0,0,4,1.79h7.86a.74.74,0,1,1,0,1.47h0Z"></path></g></g></svg> 