<?xml version="1.0" encoding="UTF-8"?> <svg xmlns="http://www.w3.org/2000/svg" viewBox="0 0 84.8 15.6"><defs><style>.cls-1{fill:#cc0b0f;}</style></defs><title>sh logo no icon</title><g id="Layer_2" data-name="Layer 2"><g id="Layer_1-2" data-name="Layer 1"><path d="M6.8,4.2,6,5.7A3.68,3.68,0,0,0,3.8,5c-.7,0-1.3.3-1.3.7,0,.6.8.7,2.2,1.1S7.2,8,7.2,9.4,6,12.1,3.5,12.1A6.24,6.24,0,0,1,0,11L.9,9.4a4.72,4.72,0,0,0,2.6.9c1,0,1.6-.3,1.6-.8S4,8.7,2.9,8.3.4,7.4.4,6,1.9,3.5,3.9,3.5a5.46,5.46,0,0,1,2.9.7"></path><path d="M15.1,4.6,13.9,6.1A2.62,2.62,0,0,0,12,5.4,2.26,2.26,0,0,0,9.7,7.7a2.26,2.26,0,0,0,2.4,2.4A2.67,2.67,0,0,0,14,9.3l1.2,1.5a4.39,4.39,0,0,1-3.4,1.3A4.17,4.17,0,0,1,7.4,7.8a4.21,4.21,0,0,1,4.3-4.3,5,5,0,0,1,3.4,1.1"></path><path d="M17.8,3.7V5.3a2.53,2.53,0,0,1,2.5-1.9h.6l-.1,2h-.3C19,5.4,18,5.8,18,7.2v4.6H15.9V3.6h1.9Z"></path><path d="M21.7,4.2a5.56,5.56,0,0,1,2.9-.8c2.4,0,3.3,1.3,3.3,2.7V10a4,4,0,0,0,.3,1.8l-1.8.3a2.35,2.35,0,0,1-.2-.8,2.78,2.78,0,0,1-2.2.9,2.92,2.92,0,0,1-3-2.9,2.86,2.86,0,0,1,3.1-3,3.9,3.9,0,0,1,1.9.6V6.8a1.32,1.32,0,0,0-1.5-1.5,4.22,4.22,0,0,0-2,.6Zm2.8,6.2a1.48,1.48,0,0,0,1.6-1.3,1.41,1.41,0,0,0-1.6-1.3,1.31,1.31,0,1,0,0,2.6"></path><path d="M29,14.8V5.3a2,2,0,0,0-.2-1.1,7.78,7.78,0,0,1,3.6-.8c3,0,4.9,1.8,4.9,4.5a4,4,0,0,1-4.1,4.2,3.91,3.91,0,0,1-2.1-.5v3.2Zm3.5-9.5a4.88,4.88,0,0,0-1.4.2V9.3c0,.5.7.8,1.6.8a2.23,2.23,0,0,0,2.5-2.4,2.44,2.44,0,0,0-2.7-2.4"></path><path d="M39.2,0a1.26,1.26,0,0,1,1.3,1.3,1.32,1.32,0,0,1-1.3,1.3,1.26,1.26,0,0,1-1.3-1.3A1.32,1.32,0,0,1,39.2,0m1.1,11.9H38.2V3.7h2.1Z"></path><path d="M48.9,11.9H46.8V7c0-1-.5-1.6-1.8-1.6a3.71,3.71,0,0,0-1.4.2V12H41.5V5.3c0-.9,0-.8-.3-1.1A10.13,10.13,0,0,1,45,3.6c2.3,0,3.8,1.1,3.8,3.4v4.9Z"></path><path d="M50.7,14.8l.8-1.7a3.73,3.73,0,0,0,2.4.7c1.6,0,2.1-.7,2.1-1.8v-.7a3.6,3.6,0,0,1-2.3.7,4,4,0,0,1-4.1-4.3,4.53,4.53,0,0,1,4.8-4.3,9,9,0,0,1,3.7.6c-.2.2-.2.2-.2,1.2v7c0,1.6-1,3.4-4.1,3.4a6.12,6.12,0,0,1-3.1-.8m5.2-6V5.6a3.84,3.84,0,0,0-1.6-.2,2.38,2.38,0,0,0-2.5,2.4A2.18,2.18,0,0,0,54,10.1c1.2,0,1.9-.6,1.9-1.3"></path><path class="cls-1" d="M61.3.6V4.3a4,4,0,0,1,2.5-.9,2.65,2.65,0,0,1,2.9,2.9v5.6H64.6V6.5c0-.7-.4-1.2-1.5-1.2a2.29,2.29,0,0,0-1.8.8v5.8H59.2V.6Z"></path><path class="cls-1" d="M75.3,3.7v6a4.31,4.31,0,0,0,.3,2.1l-2,.3a6.11,6.11,0,0,1-.3-1.3,2.64,2.64,0,0,1-2.6,1.4,2.72,2.72,0,0,1-2.8-3V3.8H70V8.9a1.33,1.33,0,0,0,1.5,1.5,1.69,1.69,0,0,0,1.8-1.6V3.9h2Z"></path><path class="cls-1" d="M78.6.6V3.9a3.91,3.91,0,0,1,2.1-.5,4,4,0,0,1,4.1,4.2c0,2.9-2.2,4.4-5,4.4a8,8,0,0,1-3.6-.7c.2-.2.2-.8.2-1.1V.6Zm1.8,4.7a3.84,3.84,0,0,0-1.8.4V9.5c0,.4.6.6,1.4.6,1.7,0,2.7-.7,2.7-2.6a2.38,2.38,0,0,0-2.3-2.2"></path></g></g></svg> 