<?xml version="1.0" encoding="UTF-8"?> <svg xmlns="http://www.w3.org/2000/svg" viewBox="0 0 30.8 32"><defs><style>.cls-1{fill:#91beb5;}</style></defs><title>splash-1</title><g id="Layer_2" data-name="Layer 2"><g id="Layer_1-2" data-name="Layer 1"><path class="cls-1" d="M27.84,21.51a2.82,2.82,0,0,0-.87.13h0s-2.74.72-2.47-2.68h0a7.55,7.55,0,0,0,.36-2.34,7.73,7.73,0,0,0-.58-2.93l0,.05v-.06h0l-.1-.24c-.44-1-1.38-4.63,3.72-6.9l.39-.17a3.37,3.37,0,0,0,1.78-3h0A3.41,3.41,0,0,0,26.78,0h0a3.37,3.37,0,0,0-3.33,2.91v.86c-.23,5-6.44,5-6.44,5a7.88,7.88,0,0,0-7.79,7v.07a3.26,3.26,0,0,1,0,.54,6.06,6.06,0,0,1-5.86,5.67,3.64,3.64,0,1,0,3.86,4.35v0C8,21,11.71,22.26,11.71,22.26A7.35,7.35,0,0,0,17,24.49h.1a7.58,7.58,0,0,0,3.61-.91l0,0A2.9,2.9,0,0,1,25,25.23a5.3,5.3,0,0,0,.2.59h0a3,3,0,1,0,2.66-4.28h0ZM17,21.17h0a4.55,4.55,0,1,1,4.54-4.55h0A4.55,4.55,0,0,1,17,21.17Z"></path><path class="cls-1" d="M16.8,30.12a1.89,1.89,0,1,1-1.89-1.88A1.89,1.89,0,0,1,16.8,30.12Z"></path><path class="cls-1" d="M6.75,10A2.84,2.84,0,1,1,3.91,7.18,2.84,2.84,0,0,1,6.75,10Z"></path><path class="cls-1" d="M16,5.81a1.51,1.51,0,1,1-1.51-1.5A1.51,1.51,0,0,1,16,5.81Z"></path><path class="cls-1" d="M30.77,14.9a2,2,0,1,1-2-2A2,2,0,0,1,30.77,14.9Z"></path></g></g></svg> 